<svg id="visual" viewBox="0 0 960 540" width="960" height="540" xmlns="http://www.w3.org/2000/svg" xmlns:xlink="http://www.w3.org/1999/xlink" version="1.1"><rect x="0" y="0" width="960" height="540" fill="#001220"></rect><path d="M0 337L22.8 336.8C45.7 336.7 91.3 336.3 137 343.2C182.7 350 228.3 364 274 362.3C319.7 360.7 365.3 343.3 411.2 344.8C457 346.3 503 366.7 548.8 367C594.7 367.3 640.3 347.7 686 336.7C731.7 325.7 777.3 323.3 823 331.7C868.7 340 914.3 359 937.2 368.5L960 378L960 541L937.2 541C914.3 541 868.7 541 823 541C777.3 541 731.7 541 686 541C640.3 541 594.7 541 548.8 541C503 541 457 541 411.2 541C365.3 541 319.7 541 274 541C228.3 541 182.7 541 137 541C91.3 541 45.7 541 22.8 541L0 541Z" fill="#fa7268"></path><path d="M0 415L22.8 415C45.7 415 91.3 415 137 408.3C182.7 401.7 228.3 388.3 274 389.2C319.7 390 365.3 405 411.2 406C457 407 503 394 548.8 392.3C594.7 390.7 640.3 400.3 686 397.8C731.7 395.3 777.3 380.7 823 373.7C868.7 366.7 914.3 367.3 937.2 367.7L960 368L960 541L937.2 541C914.3 541 868.7 541 823 541C777.3 541 731.7 541 686 541C640.3 541 594.7 541 548.8 541C503 541 457 541 411.2 541C365.3 541 319.7 541 274 541C228.3 541 182.7 541 137 541C91.3 541 45.7 541 22.8 541L0 541Z" fill="#ef5f67"></path><path d="M0 405L22.8 408.8C45.7 412.7 91.3 420.3 137 421.5C182.7 422.7 228.3 417.3 274 413.2C319.7 409 365.3 406 411.2 408.5C457 411 503 419 548.8 417.5C594.7 416 640.3 405 686 404.2C731.7 403.3 777.3 412.7 823 413.3C868.7 414 914.3 406 937.2 402L960 398L960 541L937.2 541C914.3 541 868.7 541 823 541C777.3 541 731.7 541 686 541C640.3 541 594.7 541 548.8 541C503 541 457 541 411.2 541C365.3 541 319.7 541 274 541C228.3 541 182.7 541 137 541C91.3 541 45.7 541 22.8 541L0 541Z" fill="#e34c67"></path><path d="M0 461L22.8 464.5C45.7 468 91.3 475 137 473.8C182.7 472.7 228.3 463.3 274 463.2C319.7 463 365.3 472 411.2 477C457 482 503 483 548.8 478.5C594.7 474 640.3 464 686 461.8C731.7 459.7 777.3 465.3 823 462.8C868.7 460.3 914.3 449.7 937.2 444.3L960 439L960 541L937.2 541C914.3 541 868.7 541 823 541C777.3 541 731.7 541 686 541C640.3 541 594.7 541 548.8 541C503 541 457 541 411.2 541C365.3 541 319.7 541 274 541C228.3 541 182.7 541 137 541C91.3 541 45.7 541 22.8 541L0 541Z" fill="#d53867"></path><path d="M0 473L22.8 474.7C45.7 476.3 91.3 479.7 137 485.7C182.7 491.7 228.3 500.3 274 502.5C319.7 504.7 365.3 500.3 411.2 500.5C457 500.7 503 505.3 548.8 502.8C594.7 500.3 640.3 490.7 686 487.7C731.7 484.7 777.3 488.3 823 488.5C868.7 488.7 914.3 485.3 937.2 483.7L960 482L960 541L937.2 541C914.3 541 868.7 541 823 541C777.3 541 731.7 541 686 541C640.3 541 594.7 541 548.8 541C503 541 457 541 411.2 541C365.3 541 319.7 541 274 541C228.3 541 182.7 541 137 541C91.3 541 45.7 541 22.8 541L0 541Z" fill="#c62368"></path></svg>