<svg id="visual" viewBox="0 0 960 540" width="960" height="540" xmlns="http://www.w3.org/2000/svg" xmlns:xlink="http://www.w3.org/1999/xlink" version="1.1"><rect x="0" y="0" width="960" height="540" fill="#001220"></rect><defs><linearGradient id="grad1_0" x1="43.8%" y1="100%" x2="100%" y2="0%"><stop offset="14.444444444444446%" stop-color="#001220" stop-opacity="1"></stop><stop offset="85.55555555555554%" stop-color="#001220" stop-opacity="1"></stop></linearGradient></defs><defs><linearGradient id="grad2_0" x1="0%" y1="100%" x2="56.3%" y2="0%"><stop offset="14.444444444444446%" stop-color="#001220" stop-opacity="1"></stop><stop offset="85.55555555555554%" stop-color="#001220" stop-opacity="1"></stop></linearGradient></defs><g transform="translate(960, 540)"><path d="M-459 0C-427.2 -28.6 -395.4 -57.3 -385.1 -87.9C-374.8 -118.5 -386.1 -151.2 -385.6 -185.7C-385.2 -220.2 -373 -256.5 -343.2 -273.7C-313.5 -290.9 -266.1 -289 -231.9 -290.8C-197.7 -292.7 -176.7 -298.4 -159.2 -330.7C-141.8 -362.9 -128.1 -421.7 -102.1 -447.5C-76.2 -473.3 -38.1 -466.2 0 -459L0 0Z" fill="#FBAE3C"></path></g><g transform="translate(0, 0)"><path d="M459 0C418.7 27 378.4 54.1 361.7 82.6C345 111.1 352 141 343.3 165.3C334.5 189.6 310 208.1 299.4 238.8C288.9 269.5 292.4 312.3 279.3 350.3C266.3 388.2 236.7 421.3 199.2 413.5C161.6 405.7 116.2 357 81.7 357.8C47.2 358.6 23.6 408.8 0 459L0 0Z" fill="#FBAE3C"></path></g></svg>