<svg id="visual" viewBox="0 0 960 540" width="960" height="540" xmlns="http://www.w3.org/2000/svg" xmlns:xlink="http://www.w3.org/1999/xlink" version="1.1"><rect x="0" y="0" width="960" height="540" fill="#001220"></rect><path d="M0 396L22.8 388.2C45.7 380.3 91.3 364.7 137 355.8C182.7 347 228.3 345 274 340C319.7 335 365.3 327 411.2 323.2C457 319.3 503 319.7 548.8 331.2C594.7 342.7 640.3 365.3 686 373.5C731.7 381.7 777.3 375.3 823 366.7C868.7 358 914.3 347 937.2 341.5L960 336L960 541L937.2 541C914.3 541 868.7 541 823 541C777.3 541 731.7 541 686 541C640.3 541 594.7 541 548.8 541C503 541 457 541 411.2 541C365.3 541 319.7 541 274 541C228.3 541 182.7 541 137 541C91.3 541 45.7 541 22.8 541L0 541Z" fill="#07a596"></path><path d="M0 399L22.8 392.2C45.7 385.3 91.3 371.7 137 369.8C182.7 368 228.3 378 274 378.5C319.7 379 365.3 370 411.2 369.5C457 369 503 377 548.8 388.3C594.7 399.7 640.3 414.3 686 422.2C731.7 430 777.3 431 823 422.8C868.7 414.7 914.3 397.3 937.2 388.7L960 380L960 541L937.2 541C914.3 541 868.7 541 823 541C777.3 541 731.7 541 686 541C640.3 541 594.7 541 548.8 541C503 541 457 541 411.2 541C365.3 541 319.7 541 274 541C228.3 541 182.7 541 137 541C91.3 541 45.7 541 22.8 541L0 541Z" fill="#008fa4"></path><path d="M0 416L22.8 413.8C45.7 411.7 91.3 407.3 137 406C182.7 404.7 228.3 406.3 274 413.7C319.7 421 365.3 434 411.2 434.5C457 435 503 423 548.8 414C594.7 405 640.3 399 686 397.8C731.7 396.7 777.3 400.3 823 405.3C868.7 410.3 914.3 416.7 937.2 419.8L960 423L960 541L937.2 541C914.3 541 868.7 541 823 541C777.3 541 731.7 541 686 541C640.3 541 594.7 541 548.8 541C503 541 457 541 411.2 541C365.3 541 319.7 541 274 541C228.3 541 182.7 541 137 541C91.3 541 45.7 541 22.8 541L0 541Z" fill="#0075a1"></path><path d="M0 442L22.8 442.7C45.7 443.3 91.3 444.7 137 447.7C182.7 450.7 228.3 455.3 274 456.2C319.7 457 365.3 454 411.2 453.2C457 452.3 503 453.7 548.8 456.3C594.7 459 640.3 463 686 463.7C731.7 464.3 777.3 461.7 823 461.8C868.7 462 914.3 465 937.2 466.5L960 468L960 541L937.2 541C914.3 541 868.7 541 823 541C777.3 541 731.7 541 686 541C640.3 541 594.7 541 548.8 541C503 541 457 541 411.2 541C365.3 541 319.7 541 274 541C228.3 541 182.7 541 137 541C91.3 541 45.7 541 22.8 541L0 541Z" fill="#005a95"></path><path d="M0 495L22.8 495.5C45.7 496 91.3 497 137 495C182.7 493 228.3 488 274 487.2C319.7 486.3 365.3 489.7 411.2 489.2C457 488.7 503 484.3 548.8 486.3C594.7 488.3 640.3 496.7 686 496.8C731.7 497 777.3 489 823 490.2C868.7 491.3 914.3 501.7 937.2 506.8L960 512L960 541L937.2 541C914.3 541 868.7 541 823 541C777.3 541 731.7 541 686 541C640.3 541 594.7 541 548.8 541C503 541 457 541 411.2 541C365.3 541 319.7 541 274 541C228.3 541 182.7 541 137 541C91.3 541 45.7 541 22.8 541L0 541Z" fill="#103d83"></path></svg>